<svg width="24" height="24" viewBox="0 0 24 24" fill="none" xmlns="http://www.w3.org/2000/svg">
<path d="M12.9457 0.480673C12.9018 0.481908 12.8583 0.489163 12.8164 0.502236L5.13637 2.90224C5.03874 2.93281 4.95343 2.99378 4.89289 3.07625C4.83235 3.15872 4.79973 3.25837 4.7998 3.36067V21.1207C4.79976 21.2278 4.83555 21.3318 4.90146 21.4163C4.96737 21.5007 5.05963 21.5607 5.16355 21.5866L12.8436 23.5066C12.9143 23.5243 12.9882 23.5256 13.0596 23.5104C13.1309 23.4952 13.1979 23.464 13.2553 23.4191C13.3128 23.3742 13.3593 23.3168 13.3913 23.2512C13.4232 23.1856 13.4398 23.1136 13.4398 23.0407V0.960673C13.4398 0.89644 13.427 0.832855 13.402 0.773686C13.377 0.714517 13.3403 0.660966 13.2943 0.616207C13.2482 0.571447 13.1936 0.536389 13.1337 0.513108C13.0739 0.489828 13.0099 0.478798 12.9457 0.480673ZM12.4798 1.61411V22.4257L5.7598 20.7457V3.71317L12.4798 1.61411ZM14.3998 2.40067V3.36067H18.2398V12.9607H19.1998V2.88067C19.1998 2.75337 19.1492 2.63129 19.0592 2.54128C18.9692 2.45126 18.8471 2.40069 18.7198 2.40067H14.3998ZM11.5198 11.5207C11.3925 11.5207 11.2704 11.5965 11.1804 11.7316C11.0904 11.8666 11.0398 12.0497 11.0398 12.2407C11.0398 12.4316 11.0904 12.6148 11.1804 12.7498C11.2704 12.8848 11.3925 12.9607 11.5198 12.9607C11.6471 12.9607 11.7692 12.8848 11.8592 12.7498C11.9492 12.6148 11.9998 12.4316 11.9998 12.2407C11.9998 12.0497 11.9492 11.8666 11.8592 11.7316C11.7692 11.5965 11.6471 11.5207 11.5198 11.5207ZM14.8798 13.9207C14.7525 13.9207 14.6304 13.9713 14.5404 14.0613C14.4504 14.1513 14.3998 14.2734 14.3998 14.4007V21.1207C14.3998 21.248 14.4504 21.3701 14.5404 21.4601C14.6304 21.5501 14.7525 21.6007 14.8798 21.6007H22.5598C22.6871 21.6007 22.8092 21.5501 22.8992 21.4601C22.9892 21.3701 23.0398 21.248 23.0398 21.1207V14.4007C23.0398 14.2734 22.9892 14.1513 22.8992 14.0613C22.8092 13.9713 22.6871 13.9207 22.5598 13.9207H14.8798ZM15.3598 14.8807H22.0798V20.6407H15.3598V14.8807ZM17.7598 15.8407C17.6962 15.8398 17.633 15.8515 17.574 15.8752C17.515 15.899 17.4613 15.9342 17.416 15.9788C17.3707 16.0235 17.3347 16.0767 17.3102 16.1354C17.2856 16.1941 17.273 16.2571 17.273 16.3207C17.273 16.3843 17.2856 16.4473 17.3102 16.5059C17.3347 16.5646 17.3707 16.6178 17.416 16.6625C17.4613 16.7072 17.515 16.7424 17.574 16.7661C17.633 16.7898 17.6962 16.8016 17.7598 16.8007H19.6798C19.7434 16.8016 19.8066 16.7898 19.8656 16.7661C19.9246 16.7424 19.9783 16.7072 20.0236 16.6625C20.0689 16.6178 20.1049 16.5646 20.1294 16.5059C20.154 16.4473 20.1666 16.3843 20.1666 16.3207C20.1666 16.2571 20.154 16.1941 20.1294 16.1354C20.1049 16.0767 20.0689 16.0235 20.0236 15.9788C19.9783 15.9342 19.9246 15.899 19.8656 15.8752C19.8066 15.8515 19.7434 15.8398 19.6798 15.8407H17.7598Z" fill="black"/>
</svg>
