<svg width="25" height="24" viewBox="0 0 25 24" fill="none" xmlns="http://www.w3.org/2000/svg">
<path d="M8.18043 1.44141C4.74002 1.44141 1.94043 4.241 1.94043 7.68141V16.3214C1.94043 19.7618 4.74002 22.5614 8.18043 22.5614H16.8204C20.2608 22.5614 23.0604 19.7618 23.0604 16.3214V7.68141C23.0604 4.241 20.2608 1.44141 16.8204 1.44141H8.18043ZM8.18043 2.40141H16.8204C19.7419 2.40141 22.1004 4.75989 22.1004 7.68141V16.3214C22.1004 19.2429 19.7419 21.6014 16.8204 21.6014H8.18043C5.25892 21.6014 2.90043 19.2429 2.90043 16.3214V7.68141C2.90043 4.75989 5.25892 2.40141 8.18043 2.40141ZM18.2604 5.28141C18.0058 5.28141 17.7616 5.38255 17.5816 5.56258C17.4016 5.74262 17.3004 5.9868 17.3004 6.24141C17.3004 6.49601 17.4016 6.74019 17.5816 6.92023C17.7616 7.10026 18.0058 7.20141 18.2604 7.20141C18.515 7.20141 18.7592 7.10026 18.9393 6.92023C19.1193 6.74019 19.2204 6.49601 19.2204 6.24141C19.2204 5.9868 19.1193 5.74262 18.9393 5.56258C18.7592 5.38255 18.515 5.28141 18.2604 5.28141ZM12.5004 6.72141C9.59005 6.72141 7.22043 9.09103 7.22043 12.0014C7.22043 14.9118 9.59005 17.2814 12.5004 17.2814C15.4108 17.2814 17.7804 14.9118 17.7804 12.0014C17.7804 9.09103 15.4108 6.72141 12.5004 6.72141ZM12.5004 7.68141C14.892 7.68141 16.8204 9.60985 16.8204 12.0014C16.8204 14.393 14.892 16.3214 12.5004 16.3214C10.1089 16.3214 8.18043 14.393 8.18043 12.0014C8.18043 9.60985 10.1089 7.68141 12.5004 7.68141Z" fill="#333333"/>
</svg>
