<svg width="163" height="25" viewBox="0 0 163 25" fill="none" xmlns="http://www.w3.org/2000/svg">
<path d="M22.9004 6.33283C22.1348 6.67283 21.3124 6.90163 20.4492 7.00483C21.3308 6.47683 22.0068 5.64083 22.3252 4.64403C21.5012 5.13283 20.5876 5.48803 19.6148 5.68003C18.8364 4.85043 17.7276 4.33203 16.5004 4.33203C14.1436 4.33203 12.2332 6.24323 12.2332 8.59923C12.2332 8.93363 12.2716 9.26003 12.3436 9.57123C8.79721 9.39363 5.65321 7.69443 3.54761 5.11203C3.18121 5.74243 2.97081 6.47523 2.97081 7.25843C2.97081 8.73843 3.72361 10.0448 4.86841 10.8096C4.16921 10.7872 3.51081 10.5952 2.93561 10.276C2.93561 10.2944 2.93561 10.3112 2.93561 10.3296C2.93561 12.3976 4.40601 14.1224 6.35881 14.5136C6.00121 14.6112 5.62361 14.6632 5.23401 14.6632C4.95961 14.6632 4.69161 14.636 4.43161 14.5872C4.97481 16.2824 6.55081 17.5168 8.41801 17.5512C6.95801 18.696 5.11801 19.3784 3.11801 19.3784C2.77401 19.3784 2.43401 19.3584 2.09961 19.3184C3.98841 20.5288 6.23081 21.2352 8.64121 21.2352C16.4908 21.2352 20.782 14.7328 20.782 9.09363C20.782 8.90883 20.778 8.72483 20.77 8.54163C21.6044 7.93923 22.3284 7.18803 22.9004 6.33283Z" fill="#333333"/>
<path d="M77.4988 3.18359C74.4116 3.18359 71.9004 5.69716 71.9004 8.78516V16.7852C71.9004 19.8724 74.414 22.3836 77.502 22.3836H85.502C88.5892 22.3836 91.1004 19.87 91.1004 16.782V8.78203C91.1004 5.69483 88.5868 3.18359 85.4988 3.18359H77.4988ZM87.1004 6.38359C87.542 6.38359 87.9004 6.74199 87.9004 7.18359C87.9004 7.62519 87.542 7.98359 87.1004 7.98359C86.6588 7.98359 86.3004 7.62519 86.3004 7.18359C86.3004 6.74199 86.6588 6.38359 87.1004 6.38359ZM81.5004 7.98359C84.1476 7.98359 86.3004 10.1364 86.3004 12.7836C86.3004 15.4308 84.1476 17.5836 81.5004 17.5836C78.8532 17.5836 76.7004 15.4308 76.7004 12.7836C76.7004 10.1364 78.8532 7.98359 81.5004 7.98359ZM81.5004 9.58359C80.6517 9.58359 79.8378 9.92074 79.2376 10.5209C78.6375 11.121 78.3004 11.9349 78.3004 12.7836C78.3004 13.6323 78.6375 14.4462 79.2376 15.0463C79.8378 15.6465 80.6517 15.9836 81.5004 15.9836C82.3491 15.9836 83.163 15.6465 83.7631 15.0463C84.3632 14.4462 84.7004 13.6323 84.7004 12.7836C84.7004 11.9349 84.3632 11.121 83.7631 10.5209C83.163 9.92074 82.3491 9.58359 81.5004 9.58359Z" fill="#333333"/>
<path d="M150.5 3.98438C147.151 3.98438 142.804 4.82344 142.804 4.82344L142.793 4.83594C141.268 5.07987 140.1 6.39047 140.1 7.98438V12.7844V12.7859V17.5844V17.5859C140.101 18.3472 140.374 19.0829 140.869 19.6611C141.364 20.2393 142.049 20.6221 142.801 20.7406L142.804 20.7453C142.804 20.7453 147.151 21.5859 150.5 21.5859C153.848 21.5859 158.195 20.7453 158.195 20.7453L158.196 20.7438C158.949 20.6254 159.635 20.2424 160.131 19.6635C160.626 19.0846 160.899 18.3479 160.9 17.5859V17.5844V12.7859V12.7844V7.98438C160.898 7.22288 160.626 6.48674 160.131 5.90822C159.636 5.32971 158.95 4.94674 158.198 4.82813L158.195 4.82344C158.195 4.82344 153.848 3.98438 150.5 3.98438ZM148.1 9.10313L154.5 12.7844L148.1 16.4656V9.10313Z" fill="#333333"/>
</svg>
