<svg width="67" height="40" viewBox="0 0 67 40" fill="none" xmlns="http://www.w3.org/2000/svg">
<path d="M60.73 1.47401C55.9783 1.47401 48.9793 4.42774 41.5307 7.70253C40.5033 7.38148 39.4118 6.99621 38.3844 6.61094C27.0831 2.50139 15.3966 -1.73657 1.59111 1.4098L1.5269 1.47401L0.371094 4.42774L0.692152 4.23511C0.692152 4.23511 3.51746 2.62982 9.55335 2.43718C15.1398 2.30876 24.7073 3.33615 38.6412 8.98677C35.0454 10.5921 31.4495 12.1973 27.9821 13.4816C27.4684 13.2247 27.0189 12.9679 26.5052 12.6468C21.3683 9.82152 16.8735 7.38147 13.0208 7.38147C10.2597 7.38147 8.01227 9.62888 8.01227 12.3258C8.01227 15.0869 10.2597 17.3343 13.0208 17.3343C17.3872 17.3343 22.5883 15.8574 27.9821 13.8026C30.9358 15.4079 34.018 17.0132 37.357 18.3617C36.9717 18.6185 36.5864 18.8111 36.2012 19.0038C34.2748 20.1596 32.2843 21.3154 30.2937 22.2786C26.7621 20.3522 23.4873 18.7469 20.662 18.7469C18.864 18.7469 17.3872 20.2238 17.3872 21.9575C17.3872 23.7554 18.864 25.2323 20.662 25.2323C23.9368 25.2323 27.1473 24.0765 30.2937 22.5354C30.8074 22.7923 31.7706 23.3702 31.7706 23.3702C33.5685 24.3976 35.4306 25.3607 37.2928 26.2597C36.3296 26.8376 35.3664 27.4797 34.4675 28.186C33.4401 28.8281 32.4769 29.5345 31.5137 30.1124C29.1379 29.1492 26.8263 28.5713 25.542 28.5713C24.3862 28.5713 23.4231 29.5345 23.4231 30.6903C23.4231 31.8461 24.3862 32.8093 25.542 32.8093C27.34 32.8093 29.3947 31.7819 31.5779 30.3692C32.5411 30.8187 33.5685 31.2682 34.5959 31.8461C36.9075 33.1303 40.8244 35.8272 40.8244 39.3589V39.4873L42.8792 39.8725L42.9434 39.7441C42.9434 39.6799 43.2002 38.0746 42.1086 36.0198C41.0812 34.0935 38.7696 31.3966 33.1832 29.3418C33.6327 29.0208 34.1464 28.6997 34.5959 28.3787C35.5591 27.6723 36.5864 27.0302 37.5496 26.3881C40.1181 27.5439 42.6865 28.3787 45.0624 28.3787C46.5392 28.3787 47.695 27.1587 47.695 25.746C47.695 24.3333 46.5392 23.1133 45.0624 23.1133C42.7508 23.1133 40.1181 24.4618 37.5496 26.0671C35.6875 25.2323 33.7611 24.1407 31.899 23.1133C31.899 23.1133 31 22.6638 30.5505 22.407C32.5411 21.4438 34.4675 20.3522 36.3296 19.2606C36.7791 19.0038 37.2285 18.7469 37.6138 18.4901C41.7876 20.1596 46.2824 21.3154 51.1625 21.3154C53.4099 21.3154 55.2078 19.5175 55.2078 17.2701C55.2078 15.0869 53.4099 13.2889 51.1625 13.2889C46.6677 13.2889 42.0444 15.6648 37.6138 18.2332C34.339 16.8848 31.1927 15.2795 28.3031 13.6742C32.0916 12.1973 36.0085 10.4636 39.8612 8.72992C40.3749 8.47308 40.9528 8.28044 41.5307 8.02359C48.0803 10.3352 54.373 12.3258 60.73 12.3258C64.7111 12.3258 66.8943 10.6563 66.8943 7.63832C66.8943 4.2351 64.1332 1.47401 60.73 1.47401ZM13.0208 17.0774C10.3881 17.0774 8.26912 14.9584 8.26912 12.3258C8.26912 9.75731 10.3881 7.63832 13.0208 7.63832C16.8093 7.63832 21.2399 10.0784 26.3768 12.9037C26.8263 13.1605 27.2115 13.3532 27.661 13.61C22.3957 15.6648 17.323 17.0774 13.0208 17.0774ZM20.662 24.9755C18.9925 24.9755 17.644 23.627 17.644 21.9575C17.644 20.3522 18.9925 19.0038 20.662 19.0038C23.3588 19.0038 26.5694 20.5449 30.0369 22.407C26.9547 23.8839 23.8083 24.9755 20.662 24.9755ZM25.542 32.5524C24.5147 32.5524 23.6799 31.7177 23.6799 30.6903C23.6799 29.6629 24.5147 28.8281 25.542 28.8281C26.7621 28.8281 28.9453 29.3418 31.2569 30.305C29.1379 31.5892 27.2115 32.5524 25.542 32.5524ZM41.8518 36.0841C42.7508 37.8178 42.7507 39.1662 42.6865 39.6157L41.0812 39.2946C41.017 35.3135 36.2654 32.0387 31.8348 30.2408C32.22 29.984 32.5411 29.7271 32.9264 29.5345C38.5128 31.525 40.8886 34.2219 41.8518 36.0841ZM45.0624 23.3702C46.3466 23.3702 47.4382 24.4618 47.4382 25.746C47.4382 27.0302 46.3466 28.1218 45.0624 28.1218C42.7508 28.1218 40.3107 27.2871 37.8707 26.1955C40.3749 24.6544 42.815 23.3702 45.0624 23.3702ZM51.1625 13.5458C53.2815 13.5458 54.951 15.2153 54.951 17.2701C54.951 19.3248 53.2815 21.0585 51.1625 21.0585C46.4108 21.0585 42.0444 19.9027 37.9349 18.3617C42.4297 15.729 46.7319 13.5458 51.1625 13.5458ZM38.9623 8.85834C25.7347 3.46457 16.424 2.18034 10.7092 2.18034C10.2597 2.18034 9.87441 2.18034 9.55335 2.18034C4.48064 2.37297 1.71954 3.46457 0.884787 3.84984L1.71954 1.66665C15.3966 -1.47972 27.0831 2.75824 38.3202 6.86778C39.2833 7.18884 40.2465 7.5099 41.1455 7.89517C40.3749 8.21623 38.9623 8.85834 38.9623 8.85834ZM60.73 12.0689C54.5015 12.0689 48.2729 10.1426 41.8518 7.83096C49.2361 4.62038 56.0425 1.73086 60.73 1.73086C64.0048 1.73086 66.6375 4.36353 66.6375 7.63832C66.6375 11.2984 63.4269 12.0689 60.73 12.0689Z" fill="#333333"/>
</svg>
