<svg width="98" height="40" viewBox="0 0 98 40" fill="none" xmlns="http://www.w3.org/2000/svg">
<g opacity="0.8" clip-path="url(#clip0_4681_531)">
<path d="M3.122 30.477V39.5375H0.393555V19.5117H13.7269L14.0872 21.4165C14.0358 21.4165 14.0358 21.4165 13.9843 21.365C13.8813 21.365 13.8298 21.365 13.8298 21.3135C13.6239 21.0046 12.8517 20.6958 11.5647 20.3869C10.2262 20.078 8.47592 19.9236 6.26228 19.9236H3.122V29.9622H11.8221V30.4255H3.122V30.477Z" fill="black"/>
<path d="M23.2508 33.8748C23.2508 33.36 23.2508 32.8452 23.2508 32.3304C23.2508 31.7641 23.1994 31.2493 23.1994 30.683C22.9934 31.1464 22.6331 31.4552 22.1183 31.7641C21.6035 32.0215 21.0372 32.2789 20.4194 32.4848C19.8017 32.6908 19.1324 32.8967 18.4632 33.0511C17.794 33.257 17.1247 33.463 16.5584 33.7718C15.9921 34.0807 15.5288 34.4411 15.1685 34.9044C14.8081 35.3677 14.6022 35.9855 14.6022 36.7062C14.6022 37.5299 14.8081 38.0962 15.2199 38.508C15.6318 38.9198 16.1981 39.1258 16.9188 39.1258C17.6395 39.1258 18.5662 38.9198 19.5443 38.4565C20.5739 37.9932 21.7064 37.324 22.942 36.4488C22.6331 36.7577 22.2212 37.118 21.7064 37.5299C21.1916 37.9417 20.5739 38.3021 19.9046 38.6624C19.2354 39.0228 18.5662 39.3317 17.8969 39.5376C17.1762 39.795 16.5584 39.898 15.9921 39.898C15.5288 39.898 15.014 39.8465 14.5507 39.7435C14.0874 39.6406 13.6241 39.4861 13.2122 39.2287C12.8004 38.9713 12.4915 38.6624 12.2341 38.2506C11.9767 37.8388 11.8223 37.2725 11.8223 36.6032C11.8223 36.037 11.9767 35.5222 12.2856 35.1103C12.5945 34.6985 13.0063 34.3381 13.5211 34.0292C14.0359 33.7204 14.6537 33.463 15.3229 33.257C15.9921 33.0511 16.6614 32.8452 17.3821 32.6908C18.1028 32.4848 18.7721 32.3304 19.4413 32.176C20.1106 32.0215 20.7283 31.8156 21.2431 31.6097C21.8094 31.4038 22.2212 31.1464 22.5816 30.889C22.8905 30.5801 23.0964 30.2712 23.1479 29.8594C23.0449 29.2416 22.942 28.6753 22.736 28.109C22.5816 27.5428 22.3242 27.0794 22.0153 26.6676C21.7064 26.2558 21.2946 25.9469 20.8313 25.6895C20.368 25.4321 19.7502 25.3806 19.081 25.3806C18.0514 25.4321 17.2792 25.535 16.7643 25.741C16.2495 25.9469 15.8892 26.2043 15.6318 26.5132C15.3744 26.822 15.3229 27.1309 15.3229 27.4913C15.3229 27.8516 15.3229 28.1605 15.3229 28.4694C15.3229 28.8298 15.2199 29.0872 15.014 29.2931C14.8081 29.499 14.5507 29.5505 14.2418 29.5505C13.9329 29.5505 13.6241 29.4475 13.3152 29.1901C13.0063 28.9327 12.9033 28.6238 12.9033 28.212C12.9033 27.6457 13.1607 27.1309 13.6241 26.7191C14.0874 26.3072 14.7051 25.9469 15.3744 25.6895C16.0436 25.4321 16.7644 25.2261 17.4851 25.1232C18.2058 25.0202 18.7721 24.9688 19.2354 24.9688C20.6768 24.9688 21.8609 25.1747 22.736 25.5865C23.6112 25.9984 24.2804 26.5646 24.7438 27.2339C25.2071 27.9031 25.516 28.7268 25.6704 29.6534C25.8248 30.5801 25.8763 31.5067 25.8763 32.5363V39.5891H23.3023V33.8748H23.2508Z" fill="black"/>
<path d="M31.5391 38.5087C31.7965 38.8691 32.2084 39.1265 32.7747 39.2809C33.3409 39.4353 33.9072 39.5383 34.5765 39.5383C35.1942 39.5383 35.8635 39.4868 36.4812 39.3324C37.1505 39.1779 37.7167 38.972 38.2315 38.7146C38.7463 38.4572 39.2097 38.1483 39.5185 37.7365C39.8789 37.3761 40.0333 36.9128 40.0333 36.398C40.0333 35.7803 39.7759 35.2655 39.2097 34.9051C38.6434 34.5447 37.9227 34.2359 37.099 33.9785C36.2753 33.7211 35.3487 33.4637 34.3705 33.2577C33.3924 33.0518 32.4658 32.7429 31.6421 32.4341C30.8184 32.0737 30.0977 31.6619 29.5314 31.0956C28.9651 30.5293 28.7077 29.8086 28.7077 28.9334C28.7077 28.1097 28.9136 27.4405 29.3255 26.9257C29.7373 26.4109 30.3036 25.999 30.9214 25.6902C31.5906 25.3813 32.2599 25.1754 33.0321 25.0724C33.8043 24.9694 34.4735 24.918 35.1427 24.918C35.4516 24.918 35.8635 24.9694 36.3783 25.0209C36.8931 25.0724 37.4079 25.2268 37.8712 25.4328C38.3345 25.6387 38.7978 25.8446 39.1582 26.1535C39.5185 26.4624 39.7245 26.8742 39.7245 27.3375C39.7245 27.6464 39.6215 27.9038 39.3641 28.1097C39.1067 28.3157 38.8493 28.4186 38.5404 28.4186C38.1286 28.4186 37.8712 28.3157 37.6653 28.1612C37.4593 28.0068 37.3564 27.8009 37.2534 27.5435C37.1505 27.3375 37.099 27.0801 37.0475 26.8227C36.996 26.5653 36.9445 26.3594 36.7901 26.205C36.5327 25.8961 36.2238 25.6387 35.9149 25.5357C35.5546 25.4328 35.1427 25.3298 34.6794 25.3298C34.1646 25.3298 33.6498 25.3813 33.135 25.4842C32.5687 25.5872 32.1054 25.7416 31.6421 25.9476C31.1788 26.1535 30.8184 26.4624 30.561 26.7712C30.2521 27.1316 30.1492 27.5435 30.1492 28.0068C30.1492 28.4701 30.3036 28.8819 30.664 29.1908C30.9729 29.4997 31.4362 29.7571 31.951 30.0145C32.4658 30.2204 33.0835 30.4263 33.8043 30.5808C34.4735 30.7352 35.1942 30.8897 35.9149 31.0956C36.6357 31.3015 37.3564 31.5074 38.0256 31.7133C38.6949 31.9193 39.3126 32.2281 39.8789 32.537C40.3937 32.8459 40.857 33.2577 41.1659 33.7211C41.4748 34.1844 41.6807 34.8021 41.6807 35.4714C41.6807 36.2436 41.4748 36.9128 41.0629 37.4791C40.6511 38.0454 40.1363 38.4572 39.4671 38.8176C38.7978 39.1779 38.0771 39.4353 37.2534 39.5898C36.4297 39.7442 35.5546 39.8472 34.6794 39.8472C34.3705 39.8472 34.0617 39.8472 33.6498 39.7957C33.238 39.7442 32.8261 39.7442 32.3628 39.6413C31.8995 39.5898 31.4877 39.4868 31.0243 39.3324C30.561 39.2294 30.2007 39.075 29.8403 38.8691C29.4799 38.6631 29.2225 38.4572 28.9651 38.1998C28.7592 37.9424 28.6562 37.6335 28.6562 37.2217C28.6562 36.9128 28.7592 36.7069 29.0166 36.501C29.274 36.2951 29.5314 36.1921 29.8403 36.1921C30.2521 36.1921 30.5095 36.2951 30.7155 36.4495C30.9214 36.6039 31.0243 36.8099 31.1273 37.0673C31.1788 37.3247 31.2817 37.5306 31.2817 37.788C31.3332 38.1483 31.4362 38.3543 31.5391 38.5087Z" fill="black"/>
<path d="M43.6367 19.5111L46.2107 18.1211V39.5883H43.6367V19.5111ZM46.5196 26.6668C46.7255 26.3579 47.0344 26.1005 47.3433 25.8946C47.6522 25.6887 48.0125 25.4827 48.4244 25.3798C48.8362 25.2768 49.1966 25.1224 49.6084 25.0709C50.0202 25.0194 50.3806 24.9679 50.7924 24.9679C51.9765 24.9679 52.9546 25.1224 53.7268 25.3798C54.499 25.6372 55.1683 26.049 55.6316 26.5123C56.1464 26.9757 56.5067 27.5419 56.7641 28.1597C57.0215 28.7775 57.2275 29.4467 57.3304 30.1159C57.4334 30.8367 57.4849 31.5059 57.5363 32.2781C57.5363 32.9988 57.5363 33.7196 57.5363 34.3888V39.5883H54.9623V34.1314C54.9623 33.6166 54.9623 33.1018 54.9623 32.484C54.9623 31.8663 54.9109 31.2485 54.8594 30.5793C54.8079 29.91 54.6535 29.2923 54.499 28.6745C54.3446 28.0567 54.0872 27.5419 53.7783 27.0271C53.4694 26.5638 53.0061 26.152 52.4913 25.8946C51.9765 25.5857 51.3072 25.4313 50.4836 25.4313C49.8143 25.4313 49.2995 25.4827 48.8362 25.5857C48.3729 25.6887 48.0125 25.7916 47.7036 25.8946C47.3948 25.9975 47.1374 26.152 46.9829 26.3064C46.777 26.4609 46.6226 26.5638 46.5196 26.6668Z" fill="black"/>
<path d="M63.3704 24.5051V39.5372H60.7964V25.895L63.3704 24.5051Z" fill="black"/>
<path d="M60.0908 20.077C59.6851 20.2904 58.6826 20.3852 58.6826 20.3852V20.7644C58.6826 20.7644 59.6851 20.8592 60.0908 21.0726C60.4727 21.2859 60.8068 21.5703 61.0455 21.9496C61.3081 22.3288 61.4751 22.7554 61.5945 23.2532C61.7138 23.751 61.7615 24.18 61.7615 24.18H62.0957C62.0957 24.18 62.2135 23.4995 62.2628 23.2532C62.3821 22.7554 62.573 22.3288 62.8117 21.9496C63.0504 21.5703 63.3607 21.2859 63.7664 21.0726C64.1722 20.8592 65.1746 20.7644 65.1746 20.7644V20.3852C65.1746 20.3852 64.1722 20.2904 63.7664 20.077C63.3845 19.8637 63.0504 19.5793 62.8117 19.2C62.5492 18.8208 62.3821 18.3941 62.2628 17.8964C62.208 17.603 62.0957 16.8555 62.0957 16.8555H61.7615C61.7615 16.8555 61.6506 17.7068 61.5945 17.8964C61.4751 18.3941 61.2842 18.8208 61.0455 19.2C60.8068 19.5793 60.4966 19.8637 60.0908 20.077Z" fill="black"/>
<path d="M66.4668 32.4341C66.4668 31.4559 66.6212 30.5293 66.9301 29.6027C67.239 28.676 67.7538 27.9038 68.423 27.1831C69.0923 26.4624 69.916 25.9476 70.8941 25.5357C71.8722 25.1239 73.0562 24.918 74.3947 24.918C75.7332 24.918 76.9172 25.1239 77.8954 25.5357C78.8735 25.9476 79.6972 26.5139 80.3664 27.2346C81.0356 27.9553 81.499 28.7275 81.8078 29.6541C82.1167 30.5293 82.2712 31.5074 82.2712 32.4341C82.2712 33.4122 82.1167 34.3388 81.8078 35.2655C81.499 36.1921 80.9842 36.9643 80.3149 37.685C79.6457 38.4057 78.822 38.9205 77.8439 39.3324C76.8658 39.7442 75.6817 39.9501 74.3947 39.9501C73.1077 39.9501 71.8722 39.7442 70.8941 39.3324C69.916 38.9205 69.0923 38.3543 68.423 37.6335C67.7538 36.9128 67.2905 36.1406 66.9301 35.214C66.6212 34.3388 66.4668 33.4122 66.4668 32.4341ZM73.0562 25.5357C72.1811 25.5357 71.4604 25.7416 70.8941 26.1535C70.3278 26.5653 69.8645 27.0801 69.5556 27.6979C69.2467 28.3157 69.0923 29.0879 68.9893 29.9115C68.9378 30.7352 68.9893 31.6104 69.1438 32.4855C69.2982 33.3607 69.5556 34.1844 69.9674 35.0595C70.3278 35.8832 70.7911 36.6039 71.3574 37.2732C71.9237 37.8909 72.5414 38.4572 73.2622 38.8176C73.9829 39.2294 74.7551 39.4353 75.6302 39.4353C76.5054 39.4353 77.1746 39.2294 77.7409 38.8176C78.3072 38.4057 78.719 37.8909 79.0279 37.2732C79.3368 36.6554 79.4912 35.8832 79.5942 35.0595C79.6457 34.2359 79.5942 33.3607 79.4398 32.4855C79.2853 31.6104 78.9764 30.7867 78.6161 29.9115C78.2557 29.0879 77.7924 28.3671 77.2261 27.6979C76.6598 27.0801 76.0421 26.5138 75.3214 26.1535C74.6006 25.7931 73.9314 25.5357 73.0562 25.5357Z" fill="black"/>
<path d="M84.4795 25.8939L87.0535 24.5039V39.5361H84.4795V25.8939ZM87.3109 26.6661C87.5168 26.3572 87.8257 26.0998 88.1346 25.8939C88.4435 25.6879 88.8038 25.482 89.2157 25.3791C89.6275 25.2761 89.9879 25.1217 90.3997 25.0702C90.8115 25.0187 91.1719 24.9672 91.5837 24.9672C92.7678 24.9672 93.7459 25.1217 94.5181 25.3791C95.2903 25.6365 95.9595 26.0483 96.4229 26.5116C96.9377 26.9749 97.298 27.5412 97.5554 28.159C97.8128 28.7768 98.0187 29.446 98.1217 30.1152C98.2247 30.836 98.2761 31.5052 98.3276 32.2774C98.3276 32.9981 98.3276 33.7188 98.3276 34.3881V39.5876H95.7536V34.1307C95.7536 33.6159 95.7536 33.1011 95.7536 32.4833C95.7536 31.8656 95.7021 31.2478 95.6507 30.5786C95.5992 29.9093 95.4447 29.2916 95.2903 28.6738C95.1359 28.056 94.8785 27.5412 94.5696 27.0264C94.2607 26.5631 93.7974 26.1513 93.2826 25.8939C92.7678 25.585 92.0985 25.4305 91.2749 25.4305C90.6056 25.4305 90.0908 25.482 89.6275 25.585C89.1642 25.6879 88.8038 25.7909 88.4949 25.8939C88.186 25.9968 87.9287 26.1513 87.7742 26.3057C87.5683 26.4601 87.4139 26.5631 87.3109 26.6661Z" fill="black"/>
<path d="M28.4949 1.08203C30.5541 1.08203 32.3559 1.39091 33.9003 1.95719C35.4447 2.57495 36.7317 3.34715 37.7613 4.32527C38.7909 5.3034 39.5631 6.38448 40.0779 7.67148C40.5927 8.907 40.8501 10.194 40.8501 11.5325C40.8501 12.8195 40.5927 14.1065 40.0779 15.342C39.5631 16.5775 38.7909 17.7101 37.7613 18.6882C36.7317 19.6663 35.4447 20.4385 33.9003 21.0563C32.3559 21.6741 30.5541 21.9829 28.4949 21.9829C26.4357 21.9829 24.6339 21.6741 23.0895 21.0563C21.5451 20.4385 20.2581 19.6663 19.2285 18.6882C18.1989 17.7101 17.4266 16.5775 16.9118 15.342C16.397 14.1065 16.1396 12.8195 16.1396 11.5325C16.1396 10.194 16.397 8.95848 16.9118 7.67148C17.4266 6.43596 18.1989 5.3034 19.2285 4.32527C20.2581 3.34715 21.5451 2.57495 23.0895 1.95719C24.6339 1.39091 26.4357 1.08203 28.4949 1.08203ZM30.0393 21.3137C31.5837 21.3137 32.9221 21.0563 34.0032 20.49C35.0843 19.9237 35.9595 19.203 36.6287 18.2764C37.298 17.3497 37.7098 16.3201 37.9157 15.1361C38.1216 13.952 38.1216 12.768 37.9672 11.5325C37.7613 10.297 37.4009 9.11292 36.7832 7.92888C36.1654 6.74484 35.4447 5.71524 34.518 4.78859C33.5914 3.86195 32.5103 3.14123 31.2233 2.57495C29.9363 2.00867 28.5463 1.75127 27.0019 1.75127C25.4061 1.75127 24.0676 2.00867 22.9865 2.57495C21.9054 3.14123 21.0303 3.86195 20.4125 4.78859C19.7433 5.71524 19.3314 6.74484 19.1255 7.92888C18.9196 9.11292 18.9196 10.297 19.074 11.5325C19.2799 12.768 19.6403 13.952 20.2066 15.1361C20.7729 16.3201 21.5451 17.3497 22.4717 18.2764C23.3983 19.203 24.5309 19.9237 25.7664 20.49C27.0534 21.0048 28.4949 21.3137 30.0393 21.3137Z" fill="black"/>
<path d="M43.6367 5.92121L46.2107 4.53125V13.0769C46.2622 13.9521 46.4166 14.8273 46.674 15.5995C46.9314 16.3717 47.2918 17.0924 47.8066 17.6587C48.2699 18.2249 48.8362 18.7397 49.5569 19.0486C50.2262 19.409 50.9984 19.5634 51.8735 19.5634C52.9546 19.5634 53.7783 19.2031 54.4475 18.5338C55.1168 17.8646 55.5286 16.9894 55.786 15.9598C56.0434 14.9302 56.0949 13.7977 55.9919 12.6136C55.889 11.4296 55.5801 10.297 55.1168 9.26742C54.6535 8.23781 54.0357 7.36265 53.2635 6.69341C52.4913 6.02417 51.5646 5.66381 50.535 5.66381C50.1747 5.66381 49.7628 5.71529 49.4025 5.86973C49.0421 6.02417 48.6818 6.17861 48.3214 6.38453C47.961 6.59045 47.6522 6.84785 47.3948 7.10525C47.0859 7.36265 46.88 7.67153 46.7255 7.92893C47.1374 7.05377 47.8066 6.33305 48.6818 5.76677C49.6084 5.20049 50.5865 4.94309 51.6161 4.94309C52.9031 4.94309 53.9842 5.14901 54.9109 5.56085C55.8375 5.97269 56.5582 6.53897 57.176 7.25969C57.7423 7.98041 58.2056 8.75261 58.463 9.67926C58.7204 10.6059 58.8748 11.4811 58.8748 12.4592C58.8748 13.4373 58.7204 14.3125 58.463 15.2391C58.2056 16.1143 57.7423 16.9379 57.176 17.6587C56.6097 18.3794 55.8375 18.9457 54.9109 19.3575C53.9842 19.7693 52.9031 20.0267 51.6676 20.0267C50.3291 20.0267 49.1966 19.8208 48.3214 19.4605C47.4462 19.1001 46.777 18.5853 46.2622 17.9675V26.7706H43.6882V5.92121H43.6367Z" fill="black"/>
<path d="M64.8879 9.88518C64.8879 10.8633 65.0423 11.8414 65.3512 12.871C65.6601 13.9006 66.1234 14.7758 66.6897 15.6509C67.256 16.4746 67.9767 17.1439 68.8004 17.6587C69.6241 18.1735 70.5507 18.4309 71.5288 18.4309C72.4555 18.4309 73.2791 18.2249 73.9999 17.8646C74.7206 17.4527 75.3383 16.9894 75.8531 16.4746C76.3679 15.9598 76.7798 15.3935 77.0372 14.8787C77.3461 14.3639 77.5005 13.9521 77.5005 13.6947C77.449 14.3639 77.1916 15.0847 76.7798 15.7539C76.3679 16.4231 75.8531 17.0409 75.1839 17.6072C74.5147 18.1735 73.7939 18.5853 72.9188 18.9457C72.0436 19.2545 71.117 19.4605 70.1389 19.4605C68.8004 19.4605 67.6163 19.2545 66.6382 18.8427C65.6601 18.4309 64.8364 17.8646 64.1672 17.1439C63.4979 16.4231 63.0346 15.6509 62.6743 14.7243C62.3654 13.8491 62.2109 12.871 62.2109 11.9444C62.2109 10.6574 62.4169 9.57629 62.8287 8.64965C63.2405 7.72301 63.8068 6.95081 64.4761 6.33305C65.1453 5.71529 65.9175 5.25197 66.7927 4.99457C67.6678 4.68569 68.543 4.53125 69.4181 4.53125C70.0874 4.53125 70.7566 4.63421 71.3744 4.84013C72.0436 5.04605 72.6099 5.35493 73.1762 5.76677C73.7425 6.17861 74.2058 6.64193 74.6176 7.15673C75.0295 7.72301 75.3383 8.28929 75.5957 8.95853C75.6987 9.26741 75.6472 9.52481 75.4928 9.73073C75.3383 9.93666 75.0809 10.0396 74.7206 10.0396H64.8879V9.88518ZM68.9033 4.89161C68.2341 4.89161 67.6678 4.99457 67.153 5.25197C66.6382 5.50937 66.2264 5.81825 65.9175 6.23009C65.6086 6.64193 65.3512 7.15673 65.1453 7.67153C64.9909 8.23781 64.8879 8.80409 64.8364 9.42185H73.2791C73.1762 9.06149 73.0217 8.64965 72.8158 8.13485C72.6099 7.62005 72.301 7.10525 71.9407 6.64193C71.5803 6.17861 71.1685 5.76677 70.6537 5.40641C70.1389 5.04605 69.5211 4.89161 68.9033 4.89161Z" fill="black"/>
<path d="M78.8984 5.76496L81.4724 4.375V19.4072H78.8984V5.76496ZM81.7813 6.53716C81.9872 6.22828 82.2961 5.97088 82.605 5.76496C82.9139 5.55904 83.2742 5.35312 83.6861 5.25016C84.0979 5.09572 84.4583 4.99276 84.8701 4.94128C85.282 4.8898 85.6423 4.83832 86.0542 4.83832C87.2382 4.83832 88.2163 4.99276 88.9885 5.25016C89.7607 5.50756 90.43 5.9194 90.8933 6.38272C91.4081 6.84604 91.7684 7.41232 92.0259 8.03008C92.2832 8.64784 92.4892 9.31708 92.5921 9.98633C92.6951 10.707 92.7466 11.3763 92.7981 12.1485C92.7981 12.8692 92.7981 13.5899 92.7981 14.2592V19.4587H90.224V14.0018C90.224 13.487 90.224 12.9722 90.224 12.3029C90.224 11.6852 90.1726 11.0674 90.1211 10.3982C90.0696 9.72893 89.9152 9.11116 89.7607 8.4934C89.6063 7.87564 89.3489 7.36084 89.04 6.84604C88.7311 6.38272 88.2678 5.97088 87.753 5.662C87.2382 5.35312 86.569 5.19868 85.7453 5.19868C85.076 5.19868 84.5612 5.25016 84.0979 5.35312C83.6346 5.45608 83.2742 5.55904 82.9654 5.662C82.6565 5.76496 82.3991 5.9194 82.2446 6.07384C82.0387 6.27976 81.8843 6.4342 81.7813 6.53716Z" fill="black"/>
</g>
<defs>
<clipPath id="clip0_4681_531">
<rect width="97.6062" height="40" fill="white" transform="translate(0.393555)"/>
</clipPath>
</defs>
</svg>
