<svg width="375" height="50" viewBox="0 0 375 50" fill="none" xmlns="http://www.w3.org/2000/svg">
<path d="M113.92 13.8258H114.748V26.6418H114.658L104.668 16.7958H104.596V26.4258H103.768V13.6098H103.858L113.848 23.4558H113.92V13.8258ZM123.061 13.8258H131.197V14.8158H124.699V19.3338H130.279V20.1618H124.699V25.4358H131.197V26.4258H123.061V13.8258ZM136.269 13.8258H137.925L141.633 24.2838H141.705L145.287 13.8258H146.061L149.571 24.3378H149.643L153.369 13.8258H154.197L149.733 26.4258H148.671L145.341 16.5798H145.251L141.813 26.4258H140.733L136.269 13.8258ZM178.186 22.7178H171.976L170.392 26.4258H169.564L174.892 13.8258H175.792L181.66 26.4258H179.914L178.186 22.7178ZM177.808 21.9078L174.982 15.8418H174.91L172.318 21.9078H177.808ZM188.367 13.8258H192.453C193.257 13.8258 193.923 13.9398 194.451 14.1678C194.979 14.3838 195.393 14.6598 195.693 14.9958C196.005 15.3198 196.221 15.6738 196.341 16.0578C196.473 16.4418 196.539 16.7958 196.539 17.1198C196.539 17.4798 196.479 17.8518 196.359 18.2358C196.239 18.6078 196.047 18.9558 195.783 19.2798C195.519 19.6038 195.177 19.8738 194.757 20.0898C194.349 20.3058 193.857 20.4318 193.281 20.4678V20.5398L193.461 20.6298C193.605 20.7018 193.725 20.7918 193.821 20.8998C193.929 21.0078 194.061 21.1818 194.217 21.4218C194.385 21.6618 194.607 22.0038 194.883 22.4478C195.159 22.8798 195.549 23.4618 196.053 24.1938C196.221 24.4458 196.383 24.6738 196.539 24.8778C196.695 25.0698 196.857 25.2378 197.025 25.3818C197.193 25.5138 197.373 25.6158 197.565 25.6878C197.757 25.7598 197.979 25.7958 198.231 25.7958C198.291 25.7958 198.351 25.7958 198.411 25.7958C198.471 25.7838 198.531 25.7718 198.591 25.7598V26.4258C198.423 26.5218 198.255 26.5818 198.087 26.6058C197.919 26.6298 197.703 26.6418 197.439 26.6418C197.079 26.6418 196.767 26.5938 196.503 26.4978C196.251 26.4018 196.023 26.2758 195.819 26.1198C195.615 25.9518 195.423 25.7538 195.243 25.5258C195.075 25.2978 194.901 25.0458 194.721 24.7698L193.299 22.6638C193.083 22.3278 192.897 22.0458 192.741 21.8178C192.585 21.5898 192.417 21.4038 192.237 21.2598C192.057 21.1158 191.853 21.0138 191.625 20.9538C191.409 20.8938 191.133 20.8638 190.797 20.8638H190.005V26.4258H188.367V13.8258ZM190.005 14.6178V20.0538H191.859C192.339 20.0538 192.759 19.9698 193.119 19.8018C193.491 19.6338 193.803 19.4178 194.055 19.1538C194.307 18.8778 194.493 18.5778 194.613 18.2538C194.745 17.9178 194.811 17.5878 194.811 17.2638C194.811 16.8798 194.739 16.5258 194.595 16.2018C194.463 15.8778 194.265 15.6018 194.001 15.3738C193.737 15.1338 193.419 14.9478 193.047 14.8158C192.687 14.6838 192.279 14.6178 191.823 14.6178H190.005ZM205.287 13.8258H209.373C210.177 13.8258 210.843 13.9398 211.371 14.1678C211.899 14.3838 212.313 14.6598 212.613 14.9958C212.925 15.3198 213.141 15.6738 213.261 16.0578C213.393 16.4418 213.459 16.7958 213.459 17.1198C213.459 17.4798 213.399 17.8518 213.279 18.2358C213.159 18.6078 212.967 18.9558 212.703 19.2798C212.439 19.6038 212.097 19.8738 211.677 20.0898C211.269 20.3058 210.777 20.4318 210.201 20.4678V20.5398L210.381 20.6298C210.525 20.7018 210.645 20.7918 210.741 20.8998C210.849 21.0078 210.981 21.1818 211.137 21.4218C211.305 21.6618 211.527 22.0038 211.803 22.4478C212.079 22.8798 212.469 23.4618 212.973 24.1938C213.141 24.4458 213.303 24.6738 213.459 24.8778C213.615 25.0698 213.777 25.2378 213.945 25.3818C214.113 25.5138 214.293 25.6158 214.485 25.6878C214.677 25.7598 214.899 25.7958 215.151 25.7958C215.211 25.7958 215.271 25.7958 215.331 25.7958C215.391 25.7838 215.451 25.7718 215.511 25.7598V26.4258C215.343 26.5218 215.175 26.5818 215.007 26.6058C214.839 26.6298 214.623 26.6418 214.359 26.6418C213.999 26.6418 213.687 26.5938 213.423 26.4978C213.171 26.4018 212.943 26.2758 212.739 26.1198C212.535 25.9518 212.343 25.7538 212.163 25.5258C211.995 25.2978 211.821 25.0458 211.641 24.7698L210.219 22.6638C210.003 22.3278 209.817 22.0458 209.661 21.8178C209.505 21.5898 209.337 21.4038 209.157 21.2598C208.977 21.1158 208.773 21.0138 208.545 20.9538C208.329 20.8938 208.053 20.8638 207.717 20.8638H206.925V26.4258H205.287V13.8258ZM206.925 14.6178V20.0538H208.779C209.259 20.0538 209.679 19.9698 210.039 19.8018C210.411 19.6338 210.723 19.4178 210.975 19.1538C211.227 18.8778 211.413 18.5778 211.533 18.2538C211.665 17.9178 211.731 17.5878 211.731 17.2638C211.731 16.8798 211.659 16.5258 211.515 16.2018C211.383 15.8778 211.185 15.6018 210.921 15.3738C210.657 15.1338 210.339 14.9478 209.967 14.8158C209.607 14.6838 209.199 14.6178 208.743 14.6178H206.925ZM222.927 13.8258H224.565V26.4258H222.927V13.8258ZM231.987 13.8258H233.931L238.251 24.1938H238.323L242.517 13.8258H243.453L238.341 26.4258H237.261L231.987 13.8258ZM255.543 22.7178H249.333L247.749 26.4258H246.921L252.249 13.8258H253.149L259.017 26.4258H257.271L255.543 22.7178ZM255.165 21.9078L252.339 15.8418H252.267L249.675 21.9078H255.165ZM265.725 26.4258V13.8258H267.363V25.4358H273.861V26.4258H265.725Z" fill="black"/>
<path d="M188.077 42.2543L192.627 37.7047H250.479V37.4979H192.627L188.077 33L183.58 37.4979H125.521V37.7047H183.58L188.077 42.2543ZM188.077 33.3102L192.42 37.6013L188.077 41.9441L183.735 37.6013L188.077 33.3102Z" fill="#555555"/>
</svg>
