<svg width="24" height="25" viewBox="0 0 24 25" fill="none" xmlns="http://www.w3.org/2000/svg">
<path d="M2.7 5.5625C2.0408 5.5625 1.5 6.1033 1.5 6.7625V10.9625H1.8C2.79767 10.9625 3.6 11.7648 3.6 12.7625C3.6 13.7602 2.79767 14.5625 1.8 14.5625H1.5V18.7625C1.5 19.4217 2.0408 19.9625 2.7 19.9625H21.3C21.9592 19.9625 22.5 19.4217 22.5 18.7625V14.5625H22.2C21.2023 14.5625 20.4 13.7602 20.4 12.7625C20.4 11.7648 21.2023 10.9625 22.2 10.9625H22.5V6.7625C22.5 6.1033 21.9592 5.5625 21.3 5.5625H2.7ZM2.7 6.1625H7.2C7.2 6.24206 7.23161 6.31837 7.28787 6.37463C7.34413 6.43089 7.42044 6.4625 7.5 6.4625C7.57957 6.4625 7.65587 6.43089 7.71213 6.37463C7.76839 6.31837 7.8 6.24206 7.8 6.1625H21.3C21.635 6.1625 21.9 6.4275 21.9 6.7625V10.4234C20.7254 10.5779 19.8 11.5469 19.8 12.7625C19.8 13.9781 20.7254 14.9471 21.9 15.1016V18.7625C21.9 19.0975 21.635 19.3625 21.3 19.3625H7.8C7.8 19.2829 7.76839 19.2066 7.71213 19.1504C7.65587 19.0941 7.57957 19.0625 7.5 19.0625C7.42044 19.0625 7.34413 19.0941 7.28787 19.1504C7.23161 19.2066 7.2 19.2829 7.2 19.3625H2.7C2.365 19.3625 2.1 19.0975 2.1 18.7625V15.1016C3.27462 14.9471 4.2 13.9781 4.2 12.7625C4.2 11.5469 3.27462 10.5779 2.1 10.4234V6.7625C2.1 6.4275 2.365 6.1625 2.7 6.1625ZM7.5 7.0625C7.42044 7.0625 7.34413 7.09411 7.28787 7.15037C7.23161 7.20663 7.2 7.28294 7.2 7.3625C7.2 7.44207 7.23161 7.51837 7.28787 7.57463C7.34413 7.63089 7.42044 7.6625 7.5 7.6625C7.57957 7.6625 7.65587 7.63089 7.71213 7.57463C7.76839 7.51837 7.8 7.44207 7.8 7.3625C7.8 7.28294 7.76839 7.20663 7.71213 7.15037C7.65587 7.09411 7.57957 7.0625 7.5 7.0625ZM7.5 8.2625C7.42044 8.2625 7.34413 8.29411 7.28787 8.35037C7.23161 8.40663 7.2 8.48294 7.2 8.5625C7.2 8.64207 7.23161 8.71837 7.28787 8.77463C7.34413 8.83089 7.42044 8.8625 7.5 8.8625C7.57957 8.8625 7.65587 8.83089 7.71213 8.77463C7.76839 8.71837 7.8 8.64207 7.8 8.5625C7.8 8.48294 7.76839 8.40663 7.71213 8.35037C7.65587 8.29411 7.57957 8.2625 7.5 8.2625ZM11.7293 9.05586C10.8356 9.05586 10.2 9.7711 10.2 10.7791C10.2 11.7922 10.8356 12.507 11.7293 12.507C12.623 12.507 13.2539 11.7919 13.2539 10.7791C13.2539 9.766 12.623 9.05586 11.7293 9.05586ZM15.985 9.18008L13.4725 12.6107L10.7361 16.3449H11.6496L14.1076 12.9834L16.8885 9.18008H15.985ZM7.5 9.4625C7.42044 9.4625 7.34413 9.49411 7.28787 9.55037C7.23161 9.60663 7.2 9.68294 7.2 9.7625C7.2 9.84207 7.23161 9.91837 7.28787 9.97463C7.34413 10.0309 7.42044 10.0625 7.5 10.0625C7.57957 10.0625 7.65587 10.0309 7.71213 9.97463C7.76839 9.91837 7.8 9.84207 7.8 9.7625C7.8 9.68294 7.76839 9.60663 7.71213 9.55037C7.65587 9.49411 7.57957 9.4625 7.5 9.4625ZM11.7293 9.6916C12.1763 9.6916 12.4594 10.1086 12.4594 10.7791C12.4594 11.4346 12.1661 11.8713 11.7293 11.8713C11.2874 11.8713 10.9945 11.4394 10.9945 10.7791C10.9945 10.1188 11.2823 9.6916 11.7293 9.6916ZM7.5 10.6625C7.42044 10.6625 7.34413 10.6941 7.28787 10.7504C7.23161 10.8066 7.2 10.8829 7.2 10.9625C7.2 11.0421 7.23161 11.1184 7.28787 11.1746C7.34413 11.2309 7.42044 11.2625 7.5 11.2625C7.57957 11.2625 7.65587 11.2309 7.71213 11.1746C7.76839 11.1184 7.8 11.0421 7.8 10.9625C7.8 10.8829 7.76839 10.8066 7.71213 10.7504C7.65587 10.6941 7.57957 10.6625 7.5 10.6625ZM7.5 11.8625C7.42044 11.8625 7.34413 11.8941 7.28787 11.9504C7.23161 12.0066 7.2 12.0829 7.2 12.1625C7.2 12.2421 7.23161 12.3184 7.28787 12.3746C7.34413 12.4309 7.42044 12.4625 7.5 12.4625C7.57957 12.4625 7.65587 12.4309 7.71213 12.3746C7.76839 12.3184 7.8 12.2421 7.8 12.1625C7.8 12.0829 7.76839 12.0066 7.71213 11.9504C7.65587 11.8941 7.57957 11.8625 7.5 11.8625ZM15.876 13.018C14.9823 13.018 14.3461 13.7332 14.3461 14.7412C14.3461 15.7543 14.9823 16.4691 15.876 16.4691C16.7697 16.4691 17.4 15.754 17.4 14.7412C17.4 13.7281 16.7697 13.018 15.876 13.018ZM7.5 13.0625C7.42044 13.0625 7.34413 13.0941 7.28787 13.1504C7.23161 13.2066 7.2 13.2829 7.2 13.3625C7.2 13.4421 7.23161 13.5184 7.28787 13.5746C7.34413 13.6309 7.42044 13.6625 7.5 13.6625C7.57957 13.6625 7.65587 13.6309 7.71213 13.5746C7.76839 13.5184 7.8 13.4421 7.8 13.3625C7.8 13.2829 7.76839 13.2066 7.71213 13.1504C7.65587 13.0941 7.57957 13.0625 7.5 13.0625ZM15.876 13.6537C16.323 13.6537 16.6055 14.0707 16.6055 14.7412C16.6055 15.3967 16.3128 15.8334 15.876 15.8334C15.4341 15.8334 15.1406 15.4015 15.1406 14.7412C15.1406 14.0809 15.429 13.6537 15.876 13.6537ZM7.5 14.2625C7.42044 14.2625 7.34413 14.2941 7.28787 14.3504C7.23161 14.4066 7.2 14.4829 7.2 14.5625C7.2 14.6421 7.23161 14.7184 7.28787 14.7746C7.34413 14.8309 7.42044 14.8625 7.5 14.8625C7.57957 14.8625 7.65587 14.8309 7.71213 14.7746C7.76839 14.7184 7.8 14.6421 7.8 14.5625C7.8 14.4829 7.76839 14.4066 7.71213 14.3504C7.65587 14.2941 7.57957 14.2625 7.5 14.2625ZM7.5 15.4625C7.42044 15.4625 7.34413 15.4941 7.28787 15.5504C7.23161 15.6066 7.2 15.6829 7.2 15.7625C7.2 15.8421 7.23161 15.9184 7.28787 15.9746C7.34413 16.0309 7.42044 16.0625 7.5 16.0625C7.57957 16.0625 7.65587 16.0309 7.71213 15.9746C7.76839 15.9184 7.8 15.8421 7.8 15.7625C7.8 15.6829 7.76839 15.6066 7.71213 15.5504C7.65587 15.4941 7.57957 15.4625 7.5 15.4625ZM7.5 16.6625C7.42044 16.6625 7.34413 16.6941 7.28787 16.7504C7.23161 16.8066 7.2 16.8829 7.2 16.9625C7.2 17.0421 7.23161 17.1184 7.28787 17.1746C7.34413 17.2309 7.42044 17.2625 7.5 17.2625C7.57957 17.2625 7.65587 17.2309 7.71213 17.1746C7.76839 17.1184 7.8 17.0421 7.8 16.9625C7.8 16.8829 7.76839 16.8066 7.71213 16.7504C7.65587 16.6941 7.57957 16.6625 7.5 16.6625ZM7.5 17.8625C7.42044 17.8625 7.34413 17.8941 7.28787 17.9504C7.23161 18.0066 7.2 18.0829 7.2 18.1625C7.2 18.2421 7.23161 18.3184 7.28787 18.3746C7.34413 18.4309 7.42044 18.4625 7.5 18.4625C7.57957 18.4625 7.65587 18.4309 7.71213 18.3746C7.76839 18.3184 7.8 18.2421 7.8 18.1625C7.8 18.0829 7.76839 18.0066 7.71213 17.9504C7.65587 17.8941 7.57957 17.8625 7.5 17.8625Z" fill="black"/>
</svg>
