<svg width="24" height="24" viewBox="0 0 24 24" fill="none" xmlns="http://www.w3.org/2000/svg">
<path d="M13.8369 8.42383C13.8401 8.98527 14.296 9.43958 14.8574 9.44043H19.2803V19.9805C19.2794 20.5433 18.8227 20.9994 18.2598 21H6.01953C5.45682 20.9991 5.00085 20.5432 5 19.9805V5.01953C5.00085 4.45682 5.45682 4.00085 6.01953 4H13.8232L13.8369 8.42383ZM12.1396 10.7998C11.1114 10.9021 10.3554 11.81 10.4404 12.8398C10.4321 13.4235 10.6559 13.9865 11.0625 14.4053C9.87196 14.8513 9.082 15.9884 9.08008 17.2598C9.0801 17.4475 9.23222 17.5995 9.41992 17.5996H14.8604C15.048 17.5995 15.2002 17.4474 15.2002 17.2598C15.1983 15.9884 14.4083 14.8513 13.2178 14.4053C13.6244 13.9865 13.8482 13.4235 13.8398 12.8398C13.9249 11.8098 13.1681 10.9019 12.1396 10.7998ZM12.1406 14.8799C13.323 14.8816 14.3256 15.7498 14.4961 16.9199H9.78418C9.95471 15.7497 10.9581 14.8814 12.1406 14.8799ZM12.1406 11.4795C12.6933 11.4798 13.1601 12.1029 13.1602 12.8398C13.1602 13.5768 12.6934 14.1999 12.1406 14.2002C11.5877 14.2002 11.1201 13.577 11.1201 12.8398C11.1202 12.1028 11.5877 11.4795 12.1406 11.4795ZM18.9814 8.68066C19.0043 8.7058 19.0257 8.73246 19.0459 8.75977H14.8574C14.6704 8.75951 14.5188 8.60881 14.5176 8.42188L14.5039 4.20215L18.9814 8.68066Z" fill="#333333"/>
</svg>
