<svg width="24" height="24" viewBox="0 0 24 24" fill="none" xmlns="http://www.w3.org/2000/svg">
<path d="M20.333 6.66699C20.7932 6.66699 21.167 7.03976 21.167 7.5V19.167C21.1668 19.627 20.7931 20 20.333 20H2.83301C2.37305 19.9998 2.00021 19.6269 2 19.167V7.5C2 7.03987 2.37292 6.66717 2.83301 6.66699H20.333ZM21.167 5C22.0868 5.00127 22.832 5.74709 22.833 6.66699V17.917C22.8328 18.1468 22.6468 18.3328 22.417 18.333C22.187 18.333 22.0002 18.147 22 17.917V6.66699C21.9995 6.20708 21.6269 5.83368 21.167 5.83301H4.08301C3.85312 5.83287 3.66717 5.64688 3.66699 5.41699C3.66699 5.18696 3.85301 5.00014 4.08301 5H21.167ZM17.417 16.667C17.187 16.667 17.0001 16.853 17 17.083C17 17.3131 17.1869 17.5 17.417 17.5H19.083C19.3131 17.5 19.5 17.3131 19.5 17.083C19.4999 16.853 19.313 16.667 19.083 16.667H17.417ZM11.583 10C9.86105 10.1226 8.55997 11.61 8.66699 13.333C8.55983 15.0561 9.86096 16.5443 11.583 16.667C13.3052 16.5445 14.6072 15.0562 14.5 13.333C14.607 11.6099 13.3051 10.1225 11.583 10ZM4.08301 9.16699C3.85313 9.16713 3.66719 9.35314 3.66699 9.58301C3.66699 9.81304 3.85301 9.99986 4.08301 10H5.75C5.98009 9.99996 6.16699 9.8131 6.16699 9.58301C6.16679 9.35308 5.97996 9.16703 5.75 9.16699H4.08301Z" fill="#333333"/>
</svg>
