<svg width="20" height="20" viewBox="0 0 20 20" fill="none" xmlns="http://www.w3.org/2000/svg">
<path opacity="0.6" d="M8.6377 1.50488C9.35117 0.891185 10.386 0.834485 11.1592 1.34668L11.3096 1.45703L11.3125 1.45898L17.9658 6.7334V6.73438C18.3055 7.01653 18.5 7.43179 18.5 7.86719V16.5781C18.4999 17.2191 18.2427 17.8351 17.7832 18.29C17.3808 18.6884 16.8522 18.9342 16.2891 18.9883L16.0469 19H14.083C14.0202 19 13.9619 18.9746 13.9199 18.9326C13.8887 18.9014 13.8683 18.8631 13.8604 18.8223L13.8564 18.7803V15.7158C13.8564 15.0734 13.5989 14.4588 13.1436 14.0068C12.6885 13.5551 12.0731 13.3027 11.4326 13.3027H8.55859C7.22693 13.3027 6.13477 14.3761 6.13477 15.7158V18.0498L6.11328 18.0576L6.1084 18.7754C6.10729 18.893 6.00823 19 5.87207 19H3.95605C2.59285 18.9999 1.50022 17.9049 1.5 16.5693V7.89062C1.51041 7.44809 1.72107 7.03083 2.07715 6.75684L2.08398 6.75098L2.0918 6.74512L8.61035 1.52734L8.62402 1.5166L8.6377 1.50488Z" stroke="black" stroke-width="2"/>
</svg>
