<svg width="24" height="24" viewBox="0 0 24 24" fill="none" xmlns="http://www.w3.org/2000/svg">
<g opacity="0.6">
<path d="M9.92871 16.5469C11.3149 16.4352 12.7075 16.4352 14.0938 16.5469L14.1045 16.5479H14.1162C14.8556 16.591 15.5915 16.6839 16.3193 16.8252V16.8242C17.9282 17.151 18.6033 17.6236 18.8477 18.0811C19.0503 18.4877 19.0501 18.9721 18.8477 19.3789C18.598 19.848 17.9459 20.3486 16.3203 20.6328L16.2949 20.6367C15.5699 20.7829 14.8361 20.8787 14.0986 20.9219L14.0723 20.9229L14.0469 20.9258C13.384 20.9988 12.7121 21 11.9678 21H10.6914C10.4138 20.9672 10.1404 20.9475 9.87109 20.9463C9.32638 20.9175 8.78363 20.8594 8.24512 20.7715L7.70117 20.6729L7.69238 20.6709L7.40234 20.6113C6.0068 20.3026 5.392 19.8446 5.16309 19.4102C5.08393 19.2589 5.03197 19.0932 5.01074 18.9219L5 18.749V18.7432L5.00879 18.5703C5.02165 18.4563 5.04849 18.3448 5.08789 18.2383L5.15625 18.082L5.15723 18.0811C5.378 17.6527 5.98749 17.1869 7.39355 16.8848L7.68555 16.8271L7.69629 16.8242C8.42506 16.6812 9.16259 16.5889 9.90332 16.5479H9.91602L9.92871 16.5469ZM12.0029 3C14.3245 3.00017 16.2539 4.94368 16.2539 7.40039C16.2539 9.85708 14.3245 11.8006 12.0029 11.8008C9.6812 11.8008 7.75099 9.85719 7.75098 7.40039C7.75098 4.94357 9.68119 3 12.0029 3Z" stroke="black" stroke-width="2"/>
</g>
</svg>
