<svg width="17" height="17" viewBox="0 0 17 17" fill="none" xmlns="http://www.w3.org/2000/svg">
<path d="M9.1709 0C9.47409 3.4965e-05 9.74047 0.200829 9.82422 0.492188L10.2246 1.88965C10.2564 1.99829 10.3416 2.08327 10.4502 2.11523C10.8607 2.23966 11.2579 2.4043 11.6367 2.60547C11.7358 2.65953 11.8562 2.65893 11.9551 2.60449L13.2188 1.90234C13.4841 1.75503 13.8157 1.80195 14.0303 2.0166L14.9834 2.96973C15.198 3.18432 15.2439 3.51589 15.0967 3.78125L14.3955 5.04492C14.3412 5.14365 14.3407 5.26326 14.3945 5.3623C14.5956 5.74133 14.7593 6.13919 14.8838 6.5498C14.9156 6.6584 15.0008 6.74355 15.1094 6.77539L16.5078 7.17578C16.7992 7.25951 16.9999 7.52593 17 7.8291V9.1709C16.9999 9.47403 16.7991 9.74051 16.5078 9.82422L15.1104 10.2246C15.0017 10.2564 14.9167 10.3415 14.8848 10.4502C14.7603 10.8607 14.5957 11.2578 14.3945 11.6367C14.3405 11.7358 14.3411 11.8562 14.3955 11.9551L15.0967 13.2197C15.2438 13.4851 15.1979 13.8157 14.9834 14.0303L14.0303 14.9834C13.8157 15.198 13.4841 15.2439 13.2188 15.0967L11.9551 14.3955C11.8562 14.3411 11.7358 14.3406 11.6367 14.3945C11.2579 14.5957 10.8607 14.7604 10.4502 14.8848C10.3416 14.9167 10.2564 15.0017 10.2246 15.1104L9.82422 16.5078C9.7405 16.7991 9.47405 16.9999 9.1709 17H7.8291C7.52594 16.9999 7.25952 16.7992 7.17578 16.5078L6.77539 15.1104C6.74354 15.0018 6.65833 14.9168 6.5498 14.8848C6.1394 14.7604 5.742 14.5957 5.36328 14.3945C5.26416 14.3405 5.14383 14.3411 5.04492 14.3955L3.78027 15.0967C3.51493 15.2438 3.18426 15.198 2.96973 14.9834L2.0166 14.0303C1.80202 13.8157 1.75613 13.4841 1.90332 13.2188L2.60449 11.9551C2.65881 11.8564 2.6592 11.7367 2.60547 11.6377C2.40433 11.2587 2.24071 10.8608 2.11621 10.4502C2.08438 10.3415 1.99839 10.2564 1.88965 10.2246L0.492188 9.82422C0.200865 9.74051 0.000124812 9.47402 0 9.1709V7.8291C1.76593e-05 7.5259 0.200815 7.25954 0.492188 7.17578L1.88965 6.77539C1.99831 6.74357 2.0833 6.65843 2.11523 6.5498C2.23956 6.13943 2.40328 5.74194 2.60449 5.36328C2.65862 5.26418 2.65892 5.14386 2.60449 5.04492L1.90332 3.78125C1.75597 3.51584 1.80191 3.18435 2.0166 2.96973L2.96973 2.0166C3.1843 1.80199 3.51587 1.75512 3.78125 1.90234L5.04492 2.60449C5.14382 2.6589 5.26415 2.65946 5.36328 2.60547C5.74201 2.40429 6.1394 2.23963 6.5498 2.11523C6.65835 2.08327 6.74356 1.99825 6.77539 1.88965L7.17578 0.492188C7.25953 0.200829 7.52591 3.50439e-05 7.8291 0H9.1709ZM8.5 5.44043C6.81011 5.4405 5.4405 6.81011 5.44043 8.5C5.44043 10.1899 6.81007 11.5605 8.5 11.5605C9.31156 11.5605 10.0902 11.2379 10.6641 10.6641C11.2379 10.0902 11.5605 9.31156 11.5605 8.5C11.5605 6.81007 10.1899 5.44043 8.5 5.44043Z" fill="#333333"/>
</svg>
