<svg width="18" height="18" viewBox="0 0 18 18" fill="none" xmlns="http://www.w3.org/2000/svg">
<path d="M17.2803 16.5595C17.6778 16.5596 18 16.8826 18 17.2802C17.9998 17.6776 17.6777 17.9998 17.2803 17.9999H0.719727C0.322336 17.9998 0.000208739 17.6776 0 17.2802C0 16.8826 0.322207 16.5596 0.719727 16.5595H17.2803ZM8.55664 0.153244C8.81716 -0.0510553 9.18385 -0.0511077 9.44434 0.153244L16.8789 6.15617C17.1327 6.36112 17.2803 6.66982 17.2803 6.99602V7.91985C17.2803 8.31682 16.9585 8.63862 16.5615 8.63957H16.5605V14.4003C16.958 14.4005 17.2803 14.7225 17.2803 15.12V15.8398H0.719727V15.12C0.719727 14.7224 1.04278 14.4003 1.44043 14.4003V8.63957H1.43848C1.04151 8.63862 0.719725 8.31682 0.719727 7.91985V6.99602C0.719713 6.66969 0.868117 6.36112 1.12207 6.15617L8.55664 0.153244ZM3.59961 14.4003H5.75977V8.63957H3.59961V14.4003ZM7.91992 14.4003H10.0801V8.63957H7.91992V14.4003ZM12.2402 14.4003H14.3994V8.63957H12.2402V14.4003ZM9 2.16008C8.40355 2.16008 7.91996 2.64372 7.91992 3.24016C7.91992 3.83663 8.40353 4.32024 9 4.32024C9.59646 4.32023 10.0801 3.83662 10.0801 3.24016C10.08 2.64373 9.59644 2.16009 9 2.16008Z" fill="#333333"/>
</svg>
