<svg width="26" height="26" viewBox="0 0 26 26" fill="none" xmlns="http://www.w3.org/2000/svg">
<path opacity="0.5" d="M13 1V0.5V1ZM21.4854 4.51465L21.8389 4.1611L21.4854 4.51465ZM25 13H25.5H25ZM13 25V25.5V25ZM1 13H0.5H1ZM13 1.95996V1.45996V1.95996ZM1.95996 13H1.45996H1.95996ZM13 24.04V24.54H13.0006L13 24.04ZM24.04 13L24.54 13.0006V13H24.04ZM7.86035 12.6602L7.51304 12.3004L7.50674 12.3067L7.86035 12.6602ZM8.5332 12.666L8.88676 12.3125L8.88636 12.3121L8.5332 12.666ZM8.53906 13.3398L8.89267 13.6935L8.89871 13.6872L8.53906 13.3398ZM6.47852 15.4004L6.12496 15.0468L5.27141 15.9004H6.47852V15.4004ZM16.3604 15.8799H16.8604V15.8798L16.3604 15.8799ZM6.47852 16.3604V15.8604H5.27141L6.12496 16.7139L6.47852 16.3604ZM8.53906 18.4209L8.18546 18.7745L8.19171 18.7805L8.53906 18.4209ZM8.66992 18.8877L9.15354 19.0146L9.15363 19.0143L8.66992 18.8877ZM8.32715 19.2305L8.45342 19.7143L8.45376 19.7142L8.32715 19.2305ZM7.86035 19.0996L8.22005 18.7522L8.2139 18.7461L7.86035 19.0996ZM4.98047 16.2197L4.62686 16.5732L4.62692 16.5733L4.98047 16.2197ZM4.98047 15.541L4.62686 15.1875L4.62658 15.1878L4.98047 15.541ZM17.4668 6.90625L17.1135 6.55242L17.1132 6.5527L17.4668 6.90625ZM18.1396 6.90039L18.4933 6.54678L18.487 6.54075L18.1396 6.90039ZM21.0195 9.78027L20.666 10.1338L20.6665 10.1343L21.0195 9.78027ZM21.1602 10.1201L20.6602 10.1196V10.1206L21.1602 10.1201ZM21.0195 10.459L20.6662 10.1052L20.6659 10.1055L21.0195 10.459ZM18.1396 13.3398L18.487 13.6996L18.4933 13.6933L18.1396 13.3398ZM17.4668 13.334L17.1132 13.6875L17.1136 13.6879L17.4668 13.334ZM17.4609 12.6602L17.1073 12.3065L17.1013 12.3128L17.4609 12.6602ZM19.5215 10.5996L19.875 10.9532L20.7286 10.0996H19.5215V10.5996ZM9.63965 10.1201H9.13965V10.1202L9.63965 10.1201ZM19.5215 9.63965V10.1396H20.7286L19.875 9.28609L19.5215 9.63965ZM17.4609 7.5791L17.1012 7.92651L17.1074 7.93265L17.4609 7.5791ZM13 1V1.5C16.05 1.5 18.9751 2.71154 21.1318 4.8682L21.4854 4.51465L21.8389 4.1611C19.4947 1.81688 16.3152 0.5 13 0.5V1ZM21.4854 4.51465L21.1318 4.8682C23.2885 7.02486 24.5 9.95 24.5 13H25H25.5C25.5 9.6848 24.1831 6.50531 21.8389 4.1611L21.4854 4.51465ZM25 13H24.5C24.5 19.3513 19.3513 24.5 13 24.5V25V25.5C19.9036 25.5 25.5 19.9036 25.5 13H25ZM13 25V24.5C6.64873 24.5 1.5 19.3513 1.5 13H1H0.5C0.5 19.9036 6.09644 25.5 13 25.5V25ZM1 13H1.5C1.5 6.64873 6.64873 1.5 13 1.5V1V0.5C6.09644 0.5 0.5 6.09644 0.5 13H1ZM13 1.95996V1.45996C6.62663 1.45996 1.45996 6.62663 1.45996 13H1.95996H2.45996C2.45996 7.17892 7.17892 2.45996 13 2.45996V1.95996ZM1.95996 13H1.45996C1.45996 19.3734 6.62663 24.54 13 24.54V24.04V23.54C7.17892 23.54 2.45996 18.8211 2.45996 13H1.95996ZM13 24.04L13.0006 24.54C19.3707 24.5329 24.5329 19.3707 24.54 13.0006L24.04 13L23.54 12.9994C23.5335 18.8181 18.8181 23.5335 12.9994 23.54L13 24.04ZM24.04 13H24.54C24.54 6.62663 19.3734 1.45996 13 1.45996V1.95996V2.45996C18.8211 2.45996 23.54 7.17892 23.54 13H24.04ZM7.86035 12.6602L8.20761 13.0199C8.20615 13.0213 8.20359 13.0231 8.20052 13.0243C8.19776 13.0253 8.19539 13.0257 8.19347 13.0257C8.19155 13.0256 8.18927 13.0253 8.18668 13.0242C8.18377 13.023 8.18139 13.0213 8.18005 13.02L8.5332 12.666L8.88636 12.3121C8.50875 11.9353 7.89779 11.9291 7.51309 12.3004L7.86035 12.6602ZM8.5332 12.666L8.17965 13.0196C8.17819 13.0181 8.17643 13.0156 8.17522 13.0127C8.17415 13.0101 8.17381 13.0079 8.1738 13.0061C8.17378 13.0043 8.17409 13.0021 8.17511 12.9994C8.17626 12.9965 8.17798 12.994 8.17942 12.9925L8.53906 13.3398L8.89871 13.6872C9.2701 13.3027 9.26477 12.6905 8.88676 12.3125L8.5332 12.666ZM8.53906 13.3398L8.18551 12.9863L6.12496 15.0468L6.47852 15.4004L6.83207 15.7539L8.89262 13.6934L8.53906 13.3398ZM6.47852 15.4004V15.9004H15.8799V15.4004V14.9004H6.47852V15.4004ZM15.8799 15.4004V15.9004C15.87 15.9004 15.8604 15.8922 15.8604 15.88L16.3604 15.8799L16.8604 15.8798C16.8602 15.3375 16.4199 14.9004 15.8799 14.9004V15.4004ZM16.3604 15.8799H15.8604C15.8604 15.8779 15.8609 15.8749 15.8621 15.8718C15.8633 15.8692 15.8647 15.8673 15.866 15.866C15.8673 15.8647 15.8692 15.8633 15.8718 15.8621C15.8749 15.8609 15.8779 15.8604 15.8799 15.8604V16.3604V16.8604C16.4211 16.8604 16.8604 16.4211 16.8604 15.8799H16.3604ZM15.8799 16.3604V15.8604H6.47852V16.3604V16.8604H15.8799V16.3604ZM6.47852 16.3604L6.12496 16.7139L8.18551 18.7745L8.53906 18.4209L8.89262 18.0673L6.83207 16.0068L6.47852 16.3604ZM8.53906 18.4209L8.19171 18.7805C8.18645 18.7755 8.18441 18.768 8.18622 18.7611L8.66992 18.8877L9.15363 19.0143C9.24329 18.6717 9.14123 18.3074 8.88642 18.0613L8.53906 18.4209ZM8.66992 18.8877L8.1863 18.7608C8.18804 18.7541 8.19318 18.7487 8.20054 18.7468L8.32715 19.2305L8.45376 19.7142C8.79655 19.6244 9.06378 19.3566 9.15354 19.0146L8.66992 18.8877ZM8.32715 19.2305L8.20088 18.7467C8.20742 18.745 8.21465 18.7467 8.22 18.7523L7.86035 19.0996L7.50071 19.447C7.74693 19.7019 8.11143 19.8035 8.45342 19.7143L8.32715 19.2305ZM7.86035 19.0996L8.2139 18.7461L5.33402 15.8662L4.98047 16.2197L4.62692 16.5733L7.5068 19.4532L7.86035 19.0996ZM4.98047 16.2197L5.33408 15.8662C5.33546 15.8676 5.3373 15.8702 5.33857 15.8733C5.33971 15.8761 5.34007 15.8785 5.34007 15.8805C5.34007 15.8825 5.33971 15.8848 5.33862 15.8875C5.3374 15.8905 5.33565 15.8929 5.33435 15.8942L4.98047 15.541L4.62658 15.1878C4.24493 15.5702 4.2441 16.1904 4.62686 16.5732L4.98047 16.2197ZM4.98047 15.541L5.33408 15.8945L8.21396 13.0136L7.86035 12.6602L7.50674 12.3067L4.62686 15.1875L4.98047 15.541ZM17.4668 6.90625L17.8201 7.26008C17.8188 7.26139 17.8164 7.26311 17.8135 7.26432C17.8108 7.26539 17.8085 7.26577 17.8065 7.26579C17.8045 7.26581 17.8021 7.26547 17.7993 7.26438C17.7963 7.26318 17.7937 7.26141 17.7923 7.26003L18.1396 6.90039L18.487 6.54075C18.1023 6.16916 17.4912 6.17533 17.1135 6.55242L17.4668 6.90625ZM18.1396 6.90039L17.7861 7.25394L20.666 10.1338L21.0195 9.78027L21.3731 9.42672L18.4932 6.54684L18.1396 6.90039ZM21.0195 9.78027L20.6665 10.1343C20.662 10.1299 20.6602 10.1247 20.6602 10.1196L21.1602 10.1201L21.6602 10.1207C21.6604 9.86086 21.5574 9.61045 21.3726 9.4262L21.0195 9.78027ZM21.1602 10.1201L20.6602 10.1206C20.6602 10.114 20.6627 10.1087 20.6662 10.1052L21.0195 10.459L21.3728 10.8128C21.5563 10.6296 21.6604 10.3805 21.6602 10.1197L21.1602 10.1201ZM21.0195 10.459L20.6659 10.1055L17.786 12.9864L18.1396 13.3398L18.4933 13.6933L21.3731 10.8125L21.0195 10.459ZM18.1396 13.3398L17.7924 12.9801C17.7939 12.9787 17.7964 12.9769 17.7995 12.9757C17.8022 12.9747 17.8046 12.9743 17.8065 12.9743C17.8085 12.9744 17.8107 12.9747 17.8133 12.9758C17.8162 12.977 17.8186 12.9787 17.82 12.98L17.4668 13.334L17.1136 13.6879C17.4912 14.0647 18.1022 14.0709 18.4869 13.6996L18.1396 13.3398ZM17.4668 13.334L17.8204 12.9804C17.8218 12.9819 17.8236 12.9844 17.8248 12.9873C17.8258 12.9899 17.8262 12.9921 17.8262 12.9939C17.8262 12.9957 17.8259 12.9979 17.8249 13.0006C17.8237 13.0035 17.822 13.006 17.8206 13.0075L17.4609 12.6602L17.1013 12.3128C16.7299 12.6973 16.7352 13.3095 17.1132 13.6875L17.4668 13.334ZM17.4609 12.6602L17.8145 13.0137L19.875 10.9532L19.5215 10.5996L19.1679 10.2461L17.1074 12.3066L17.4609 12.6602ZM19.5215 10.5996V10.0996H10.1201V10.5996V11.0996H19.5215V10.5996ZM10.1201 10.5996V10.0996C10.13 10.0996 10.1396 10.1078 10.1396 10.12L9.63965 10.1201L9.13965 10.1202C9.13978 10.6625 9.58012 11.0996 10.1201 11.0996V10.5996ZM9.63965 10.1201H10.1396C10.1396 10.1221 10.1391 10.1251 10.1379 10.1282C10.1367 10.1308 10.1353 10.1327 10.134 10.134C10.1327 10.1353 10.1308 10.1367 10.1282 10.1379C10.1251 10.1391 10.1221 10.1396 10.1201 10.1396V9.63965V9.13965C9.57888 9.13965 9.13965 9.57888 9.13965 10.1201H9.63965ZM10.1201 9.63965V10.1396H19.5215V9.63965V9.13965H10.1201V9.63965ZM19.5215 9.63965L19.875 9.28609L17.8145 7.22555L17.4609 7.5791L17.1074 7.93265L19.1679 9.9932L19.5215 9.63965ZM17.4609 7.5791L17.8206 7.23175C17.8282 7.23961 17.828 7.25211 17.8204 7.2598L17.4668 6.90625L17.1132 6.5527C16.7352 6.9307 16.7299 7.54191 17.1013 7.92646L17.4609 7.5791Z" fill="black"/>
</svg>
